<?xml version="1.0" encoding="UTF-8" standalone="no"?>
<svg width="225px" height="31px" viewBox="0 0 225 31" version="1.1" xmlns="http://www.w3.org/2000/svg" xmlns:xlink="http://www.w3.org/1999/xlink">
    <!-- Generator: Sketch 43.2 (39069) - http://www.bohemiancoding.com/sketch -->
    <title>MAIN LOGO</title>
    <desc>Created with Sketch.</desc>
    <defs>
        <path d="M37.8970588,3.51302941 L0.15,3.51302941 L0.15,12.5130588 L14.8197479,12.5130588 C15.1288866,13.9955882 15.592437,15.4452941 16.2091387,16.8512353 C17.3946429,19.5543137 19.0912815,21.9820392 21.2521008,24.0663333 C23.412605,26.1500196 25.9298319,27.7863333 28.7328782,28.9299902 C31.6380252,30.1149804 34.7212185,30.7158333 37.8970588,30.7158333 L37.8970588,21.7158039 C35.9769958,21.7158039 34.1171218,21.3541373 32.3684874,20.6408333 C30.6768908,19.9509314 29.1573529,18.9622745 27.8511555,17.7028235 C26.5443277,16.4421569 25.5192227,14.9760392 24.8038866,13.3448922 C24.6838235,13.0707549 24.5766807,12.7929706 24.4758403,12.5130588 L37.8970588,12.5130588 L37.8970588,3.51302941" id="path-1"></path>
    </defs>
    <g id="Page-1" stroke="none" stroke-width="1" fill="none" fill-rule="evenodd">
        <g id="HOMEPAGE" transform="translate(-61.000000, -37.000000)" fill="#FFFFFF">
            <g id="MAIN-NAV" transform="translate(61.000000, 37.000000)">
                <g id="MAIN-LOGO">
                    <g id="Fill-3">
                        <use xlink:href="#path-1"></use>
                        <use xlink:href="#path-1"></use>
                    </g>
                    <path d="M55.3490546,11.8395686 L55.3490546,17.5058824 C55.3490546,19.4263627 56.4277311,20.1466569 57.7556723,20.1466569 C58.8009454,20.1466569 59.8963235,19.6506569 60.7761555,19.138549 L62.3691176,22.4038824 C60.9586134,23.3481667 59.3155462,24.0362451 57.0415966,24.0362451 C53.0420168,24.0362451 51.0173319,21.8756667 51.0173319,17.8420196 L51.0173319,11.8395686 L47.9136555,11.8395686 L47.9136555,8.12595098 L51.0173319,8.12595098 L51.0173319,3.51606863 L55.3490546,3.51606863 L55.3490546,8.12595098 L61.1741597,8.12595098 L61.1741597,11.8395686 L55.3490546,11.8395686" id="Fill-5"></path>
                    <path d="M66.867542,15.8732157 C66.867542,18.2419804 68.4772059,20.1466569 71.0164916,20.1466569 C73.4896008,20.1466569 75.1657563,18.3222157 75.1657563,15.8732157 C75.1657563,13.4242157 73.4896008,11.5994706 71.0164916,11.5994706 C68.4772059,11.5994706 66.867542,13.5041471 66.867542,15.8732157 Z M75.0327731,23.6362843 L75.0327731,21.9236863 C73.9707983,23.188 72.4273109,24.0362451 70.2198529,24.0362451 C65.7721639,24.0362451 62.4362395,20.5311176 62.4362395,15.8732157 C62.4362395,11.2153137 65.7721639,7.70988235 70.2198529,7.70988235 C72.4273109,7.70988235 73.9707983,8.55812745 75.0327731,9.83885294 L75.0327731,8.12595098 L79.2652311,8.12595098 L79.2652311,23.6362843 L75.0327731,23.6362843 L75.0327731,23.6362843 Z" id="Fill-6"></path>
                    <path d="M85.3238445,15.8732157 C85.3238445,18.3222157 87.0003151,20.1466569 89.4564076,20.1466569 C92.012395,20.1466569 93.6056723,18.2419804 93.6056723,15.8732157 C93.6056723,13.5041471 92.012395,11.5994706 89.4564076,11.5994706 C87.0003151,11.5994706 85.3238445,13.4242157 85.3238445,15.8732157 Z M98.0533613,15.8732157 C98.0533613,20.5311176 94.717437,24.0362451 90.2697479,24.0362451 C88.0956933,24.0362451 86.6016807,23.2360196 85.5397059,22.0197255 L85.5397059,30.0386961 L81.2243697,30.0386961 L81.2243697,8.12595098 L85.4568277,8.12595098 L85.4568277,9.83885294 C86.5191176,8.55812745 88.0455882,7.70988235 90.2530462,7.70988235 C94.6843487,7.70988235 98.0533613,11.2153137 98.0533613,15.8732157 L98.0533613,15.8732157 Z" id="Fill-7"></path>
                    <polygon id="Fill-8" points="99.5981092 23.6362843 103.929832 23.6362843 103.929832 8.12595098 99.5981092 8.12595098"></polygon>
                    <path d="M121.056933,13.7603529 L121.056933,23.6362843 L116.72521,23.6362843 L116.72521,15.104902 C116.72521,12.8479804 115.580357,11.6313824 113.588761,11.6313824 C111.729832,11.6313824 110.186345,12.7838529 110.186345,15.1368137 L110.186345,23.6362843 L105.854622,23.6362843 L105.854622,8.12595098 L110.070378,8.12595098 L110.070378,9.95069608 C111.215546,8.30192157 112.958193,7.70988235 114.800105,7.70988235 C118.451471,7.70988235 121.056933,10.1588824 121.056933,13.7603529" id="Fill-9"></path>
                    <path d="M129.090756,11.8395686 L129.090756,23.6362843 L124.759034,23.6362843 L124.759034,11.8395686 L121.754937,11.8395686 L121.754937,8.12595098 L124.759034,8.12595098 L124.759034,6.20516667 C124.759034,2.57178431 126.767017,0.186911765 130.517962,0.186911765 C132.708718,0.186911765 134.218803,0.795058824 135.463866,1.57948039 L133.737605,4.82870588 C132.940966,4.39652941 131.994958,4.0765 130.982773,4.0765 C129.721324,4.0765 129.090756,4.79679412 129.090756,6.25318627 L129.090756,8.12595098 L134.086134,8.12595098 L134.086134,11.8395686 L129.090756,11.8395686" id="Fill-10"></path>
                    <polygon id="Fill-11" points="136.510084 23.6362843 140.841807 23.6362843 140.841807 0.587176471 136.510084 0.587176471"></polygon>
                    <path d="M150.252101,24.0362451 C146.219118,24.0362451 142.634244,21.9236863 142.634244,17.0256863 L142.634244,8.12595098 L146.965966,8.12595098 L146.965966,16.6576373 C146.965966,19.138549 148.376471,20.1466569 150.252101,20.1466569 C152.111029,20.1466569 153.538235,19.138549 153.538235,16.6576373 L153.538235,8.12595098 L157.852941,8.12595098 L157.852941,17.0256863 C157.852941,21.9236863 154.284769,24.0362451 150.252101,24.0362451" id="Fill-12"></path>
                    <path d="M163.86208,14.4165196 L170.981723,14.4165196 C170.583718,12.4158039 169.355357,11.3113529 167.480042,11.3113529 C165.421954,11.3113529 164.243697,12.4796275 163.86208,14.4165196 Z M175.330147,15.8571078 C175.330147,16.3534118 175.297059,16.8974314 175.247269,17.2657843 L163.845693,17.2657843 C164.276786,19.506598 165.93687,20.4827941 167.977941,20.4827941 C169.372059,20.4827941 170.865756,19.9548824 172.044013,18.9944902 L174.583613,21.6832843 C172.741071,23.3001471 170.450735,24.0362451 167.728992,24.0362451 C162.816492,24.0362451 159.380987,20.7870196 159.380987,15.9212353 C159.380987,11.0551471 162.70021,7.70988235 167.513445,7.70988235 C172.143908,7.70988235 175.330147,11.0232353 175.330147,15.8571078 L175.330147,15.8571078 Z" id="Fill-13"></path>
                    <path d="M191.944223,13.7603529 L191.944223,23.6362843 L187.612815,23.6362843 L187.612815,15.104902 C187.612815,12.8479804 186.467647,11.6313824 184.475735,11.6313824 C182.616807,11.6313824 181.073634,12.7838529 181.073634,15.1368137 L181.073634,23.6362843 L176.741912,23.6362843 L176.741912,8.12595098 L180.957353,8.12595098 L180.957353,9.95069608 C182.102521,8.30192157 183.845168,7.70988235 185.687395,7.70988235 C189.338445,7.70988235 191.944223,10.1588824 191.944223,13.7603529" id="Fill-14"></path>
                    <path d="M208.475105,10.6390784 L205.354727,13.1522059 C204.358929,12.1276863 203.330042,11.5994706 201.919538,11.5994706 C199.678992,11.5994706 197.886239,13.2962647 197.886239,15.8732157 C197.886239,18.4659706 199.66229,20.1466569 201.902836,20.1466569 C203.296639,20.1466569 204.47521,19.5385098 205.404832,18.5781176 L208.491492,21.1231569 C206.965021,22.9962255 204.740546,24.0362451 202.035504,24.0362451 C196.907458,24.0362451 193.471639,20.5630294 193.471639,15.8732157 C193.471639,11.183098 196.907458,7.70988235 202.035504,7.70988235 C204.740546,7.70988235 206.998109,8.76631373 208.475105,10.6390784" id="Fill-15"></path>
                    <path d="M213.381618,14.4165196 L220.501891,14.4165196 C220.103256,12.4158039 218.87521,11.3113529 216.999895,11.3113529 C214.941807,11.3113529 213.76355,12.4796275 213.381618,14.4165196 Z M224.85,15.8571078 C224.85,16.3534118 224.816912,16.8974314 224.767122,17.2657843 L213.365231,17.2657843 C213.796639,19.506598 215.456092,20.4827941 217.497794,20.4827941 C218.891912,20.4827941 220.385609,19.9548824 221.564181,18.9944902 L224.103151,21.6832843 C222.260924,23.3001471 219.970903,24.0362451 217.248529,24.0362451 C212.336345,24.0362451 208.90084,20.7870196 208.90084,15.9212353 C208.90084,11.0551471 212.220063,7.70988235 217.032983,7.70988235 C221.663445,7.70988235 224.85,11.0232353 224.85,15.8571078 L224.85,15.8571078 Z" id="Fill-16"></path>
                    <polygon id="Fill-17" points="99.3302521 5.54596078 104.153571 5.54596078 104.153571 1.05491176 99.3302521 1.05491176"></polygon>
                </g>
            </g>
        </g>
    </g>
</svg>